<?xml version="1.0" encoding="utf-8"?>
<!-- Generator: Adobe Illustrator 23.0.2, SVG Export Plug-In . SVG Version: 6.00 Build 0)  -->
<svg version="1.1" id="Layer_1" xmlns="http://www.w3.org/2000/svg" xmlns:xlink="http://www.w3.org/1999/xlink" x="0px" y="0px"
	 viewBox="0 0 560 288" style="enable-background:new 0 0 560 288;" xml:space="preserve">
<style type="text/css">
	.st0{opacity:0.17;}
	.st1{fill:#006091;}
	.st2{fill:#87ADCC;}
</style>
<g class="st0">
	<g>
		<g>
			<path class="st1" d="M56.7,35.5c10.7,0,18.6,2.1,24,6.7c4.3,3.6,7.5,9,7.5,16.8c0,8.9-4,15.7-10.5,20.1
				c-6.2,4.3-14.2,6.5-23.7,6.5H30.9v-2.9c6.4-0.5,7.1-1.2,7.1-7.6V45.9c0-6.5-0.9-7.1-7.1-7.6v-2.9H56.7z M49.7,74.7
				c0,5.5,1.5,7.3,7.6,7.3c11.3,0,17.9-7.3,17.9-21.8c0-7.3-2.2-13.7-6-17c-3.5-3.2-7.9-4.3-13.5-4.3c-3.1,0-4.5,0.6-5,1.1
				c-0.8,0.7-0.9,2-0.9,4.2V74.7z"/>
			<path class="st1" d="M152,38.4c-5.4,0.5-6.8,1.9-7.1,4.7c-0.3,2.3-0.4,4.9-0.4,10.3v10.1c0,6.6-1.2,13.3-6,18
				c-3.9,3.7-9.8,5.3-15.8,5.3c-5.5,0-11.1-1.1-15-4c-4.9-3.4-7.2-8.1-7.2-16.7V46.5c0-7.1-0.8-7.6-7.1-8.2v-2.9h25.9v2.9
				c-6.3,0.5-7,1.1-7,8.2V67c0,8.6,4.6,14.3,13.6,14.3c10,0,14.3-6.8,14.3-18.4v-9.6c0-5.3-0.3-8.1-0.4-10.4
				c-0.3-3.5-2.7-4.3-8.6-4.6v-2.9H152V38.4z"/>
			<path class="st1" d="M208,72.4c-1.2,3.9-3.4,9.7-4.7,12.4c-2.2,0.5-9.1,2-15.4,2c-22.6,0-31.9-13.3-31.9-25.6
				c0-16,13.3-26.8,33.4-26.8c7.3,0,13.8,1.6,15.9,1.9c0.4,3.6,1,9.3,1.6,12.7l-3.4,0.5c-1.8-6-4.3-8.9-8.7-10.5
				c-2-0.8-5-1.1-7.3-1.1c-12.2,0-18.3,9.3-18.3,21.4c0,14.1,7.9,23.7,19.4,23.7c7,0,11.7-3.4,16.3-11.9L208,72.4z"/>
			<path class="st1" d="M214.4,35.5h25.4v2.9c-6,0.7-7,1.1-7,7.6v13c1.8-0.5,3.8-1.7,6.5-4.1c5.7-5.2,9.4-9.3,11.9-12.3
				c2-2.4,1.5-3.5-2.3-4l-1.6-0.2v-2.9h22v2.9c-5.8,0.7-8.9,1.1-14.2,6.3c-3.3,3.2-7.4,7-11.1,10.7c5.3,6.8,11.8,15,18.3,22.5
				c3.1,3.7,4.2,4.2,8.5,4.9v2.9h-16.7c-3.5-4.4-10.9-13.7-16.9-21.5c-1.8-2.3-3.1-2.8-4.4-2.5v13.7c0,6.6,0.6,6.8,7,7.6v2.9h-25.5
				v-2.9c6.3-0.6,7.1-1,7.1-7.6V45.9c0-6.5-0.8-7-7.1-7.6V35.5z"/>
		</g>
	</g>
</g>
<g>
	<g>
		<g>
			<path class="st1" d="M293.1,79.1c-0.3,1.4-1.2,5-1.5,5.9h-16.9v-1.2c3-0.2,3.3-0.4,3.3-3.2V67.8c0-2.8-0.3-3.1-2.9-3.3v-1.2h10.6
				v1.2c-2.7,0.2-3,0.5-3,3.3v13c0,1.8,0.1,2.7,1.9,2.7c0.1,0,1.6,0,1.8,0c1.9,0,2.5-0.4,3.3-1.3c0.6-0.7,1.5-2.1,2.1-3.5
				L293.1,79.1z"/>
			<path class="st1" d="M305.9,85v-1.2c2.1-0.3,2.1-0.7,1.7-2.1c-0.3-1-0.9-2.5-1.4-3.8h-6.6c-0.4,1-0.9,2.3-1.2,3.3
				c-0.7,2.1,0.1,2.4,2.8,2.6V85h-8.4v-1.2c2.1-0.3,2.7-0.6,3.9-3.4l7.1-17.3l1.6-0.3c2.2,5.8,4.5,11.8,6.7,17.4
				c1.3,3.1,1.6,3.3,3.8,3.6V85H305.9z M302.9,69c-1,2.4-1.9,4.6-2.8,7.1h5.4L302.9,69z"/>
			<path class="st1" d="M339.9,64.5c-2.1,0.3-2.7,0.7-2.8,2.2c-0.1,1.3-0.2,2.4-0.2,5.3v13.3h-1.9l-14.2-16.7v7.6
				c0,2.9,0.1,4.2,0.2,5.2c0.1,1.5,0.9,2.2,3.4,2.4V85h-8.4v-1.2c1.9-0.2,2.8-0.7,3-2.2c0.1-1.2,0.2-2.4,0.2-5.3v-7.9
				c0-1.1-0.1-1.8-0.7-2.7c-0.6-0.8-1.4-0.9-2.9-1.1v-1.2h6.6l13,14.8v-6c0-2.9,0-4-0.1-5.2c-0.1-1.4-0.6-2.1-3.5-2.3v-1.2h8.4V64.5
				z"/>
			<path class="st1" d="M352.1,63.3c4.4,0,7.6,0.9,9.7,2.9c1.7,1.6,3.1,3.9,3.1,7.3c0,3.8-1.6,6.8-4.3,8.7c-2.5,1.9-5.8,2.8-9.6,2.8
				h-9.4v-1.2c2.6-0.2,2.9-0.5,2.9-3.3V67.8c0-2.8-0.4-3.1-2.9-3.3v-1.2H352.1z M349.3,80.3c0,2.4,0.6,3.2,3.1,3.2
				c4.6,0,7.3-3.1,7.3-9.5c0-3.2-0.9-6-2.5-7.4c-1.4-1.4-3.2-1.9-5.5-1.9c-1.3,0-1.8,0.3-2,0.5c-0.3,0.3-0.4,0.9-0.4,1.8V80.3z"/>
		</g>
	</g>
</g>
<g>
	<g>
		<g>
			<path class="st2" d="M293.8,78.9c-0.3,1.4-1.3,4.8-1.6,5.6h-17.4v-1.2c3.1-0.2,3.4-0.4,3.4-3.1V68c0-2.7-0.4-2.9-3-3.1v-1.2h10.9
				v1.2c-2.7,0.2-3.1,0.4-3.1,3.1v12.4c0,1.8,0.1,2.6,2,2.6c0.1,0,1.7,0,1.8,0c2,0,2.5-0.4,3.4-1.2c0.7-0.6,1.6-2,2.2-3.3
				L293.8,78.9z"/>
			<path class="st2" d="M306.9,84.5v-1.2c2.2-0.3,2.2-0.6,1.7-2c-0.3-1-0.9-2.4-1.4-3.7h-6.8c-0.4,1-0.9,2.2-1.2,3.2
				c-0.7,2,0.1,2.3,2.9,2.5v1.2h-8.7v-1.2c2.2-0.3,2.8-0.5,4-3.2l7.3-16.5l1.7-0.3c2.2,5.6,4.6,11.3,6.9,16.6c1.3,3,1.6,3.2,3.9,3.5
				v1.2H306.9z M303.8,69.2c-1,2.3-2,4.4-2.9,6.8h5.6L303.8,69.2z"/>
			<path class="st2" d="M341.9,64.9c-2.1,0.3-2.8,0.7-2.9,2.1c-0.1,1.2-0.2,2.3-0.2,5.1v12.7h-2l-14.6-16v7.2c0,2.8,0.1,4,0.2,5
				c0.1,1.4,0.9,2.1,3.5,2.3v1.2h-8.7v-1.2c2-0.2,2.9-0.6,3.1-2.1c0.1-1.2,0.2-2.3,0.2-5.1v-7.6c0-1.1-0.1-1.8-0.7-2.6
				c-0.6-0.8-1.5-0.9-2.9-1v-1.2h6.8l13.3,14.2v-5.8c0-2.8,0-3.8-0.1-5c-0.1-1.4-0.7-2-3.6-2.2v-1.2h8.7V64.9z"/>
			<path class="st2" d="M354.5,63.7c4.5,0,7.8,0.9,10,2.8c1.8,1.5,3.2,3.7,3.2,7c0,3.7-1.7,6.5-4.4,8.4c-2.6,1.8-5.9,2.7-9.9,2.7
				h-9.6v-1.2c2.7-0.2,3-0.5,3-3.1V68c0-2.7-0.4-2.9-3-3.1v-1.2H354.5z M351.6,80c0,2.3,0.6,3,3.2,3c4.7,0,7.5-3,7.5-9.1
				c0-3-0.9-5.7-2.5-7.1c-1.5-1.3-3.3-1.8-5.6-1.8c-1.3,0-1.9,0.3-2.1,0.4c-0.3,0.3-0.4,0.8-0.4,1.8V80z"/>
		</g>
	</g>
</g>
<g>
	<g>
		<g>
			<path class="st1" d="M61.3,35.8c10.6,0,18.4,2.1,23.7,6.6c4.2,3.6,7.5,8.9,7.5,16.6c0,8.8-4,15.5-10.4,19.9
				c-6.1,4.3-14,6.4-23.5,6.4H35.9v-2.8c6.3-0.5,7.1-1.1,7.1-7.5v-29c0-6.4-0.9-7-7.1-7.5v-2.8H61.3z M54.5,74.5
				c0,5.4,1.5,7.2,7.6,7.2c11.2,0,17.7-7.2,17.7-21.6c0-7.2-2.2-13.6-6-16.8c-3.5-3.2-7.8-4.3-13.4-4.3c-3.1,0-4.5,0.6-5,1.1
				c-0.7,0.7-0.9,2-0.9,4.2V74.5z"/>
			<path class="st1" d="M155.7,38.6c-5.3,0.5-6.7,1.9-7.1,4.6c-0.2,2.3-0.4,4.9-0.4,10.2v10c0,6.6-1.2,13.2-5.9,17.8
				c-3.8,3.7-9.7,5.3-15.6,5.3c-5.5,0-11-1.1-14.9-4c-4.8-3.4-7.1-8-7.1-16.5V46.7c0-7-0.7-7.5-7.1-8.1v-2.8h25.6v2.8
				c-6.2,0.5-7,1.1-7,8.1V67c0,8.5,4.6,14.2,13.4,14.2c9.9,0,14.2-6.7,14.2-18.1v-9.5c0-5.3-0.2-8-0.4-10.3
				c-0.3-3.5-2.7-4.3-8.5-4.6v-2.8h20.6V38.6z"/>
			<path class="st1" d="M211,72.2c-1.2,3.8-3.3,9.6-4.6,12.3c-2.2,0.5-9,2-15.3,2c-22.3,0-31.5-13.2-31.5-25.3
				c0-15.8,13.1-26.4,33-26.4c7.2,0,13.6,1.6,15.7,1.8c0.4,3.6,1,9.2,1.6,12.6l-3.3,0.5c-1.7-5.9-4.2-8.8-8.6-10.4
				c-2-0.8-5-1.1-7.2-1.1c-12,0-18.1,9.2-18.1,21.2c0,13.9,7.8,23.4,19.2,23.4c7,0,11.6-3.4,16.1-11.7L211,72.2z"/>
			<path class="st1" d="M217.4,35.8h25.1v2.8c-6,0.7-6.9,1.1-6.9,7.5v12.8c1.7-0.5,3.7-1.7,6.5-4c5.6-5.1,9.3-9.2,11.8-12.1
				c2-2.4,1.5-3.5-2.3-4l-1.6-0.2v-2.8h21.7v2.8c-5.7,0.7-8.8,1.1-14,6.2c-3.2,3.1-7.3,6.9-11,10.6c5.2,6.7,11.7,14.9,18.1,22.3
				c3.1,3.7,4.1,4.2,8.4,4.8v2.8h-16.5c-3.5-4.3-10.8-13.6-16.7-21.3c-1.7-2.3-3.1-2.7-4.4-2.5V75c0,6.5,0.6,6.7,7,7.5v2.8h-25.2
				v-2.8c6.2-0.6,7.1-1,7.1-7.5v-29c0-6.4-0.8-6.9-7.1-7.5V35.8z"/>
		</g>
	</g>
</g>
</svg>
